<svg width="149" height="150" viewBox="0 0 149 150" fill="none" xmlns="http://www.w3.org/2000/svg">
<path d="M57.5256 1.46848C62.5174 3.3226 67.0814 7.26854 68.8404 12.1653C70.647 17.0621 69.6962 22.9097 69.3159 29.1376C68.888 35.3656 68.9831 42.0214 65.7502 45.682C62.4699 49.2952 55.8616 49.9608 49.1107 53.2887C42.4074 56.6641 35.6089 62.6544 28.9056 63.0822C22.1547 63.5101 15.594 58.3281 10.0316 52.1477C4.51682 45.9198 0.0479254 38.6935 0.000383948 31.4671C-0.0471575 24.2408 4.32666 17.0145 9.60376 12.2129C14.8809 7.36363 21.1088 4.93901 26.5761 3.3226C32.0909 1.70619 36.845 0.897987 41.9795 0.375031C47.114 -0.147925 52.5813 -0.385632 57.5256 1.46848Z" fill="#D89B00"/>
<path d="M135.904 127.578C130.751 130.296 124.752 129.793 113.137 134.733C101.522 139.674 84.2961 149.97 75.9231 146.806C67.5535 143.554 68.0408 126.754 76.6029 118.417C85.0732 110.166 101.618 110.377 110.53 99.9298C119.437 89.5709 122.854 80.9738 127.247 77.341C131.551 73.7048 136.828 75.1213 141.439 86.1033C145.962 97.0818 147.592 105.113 146.344 112.057C145.096 119.001 140.969 124.857 135.904 127.578Z" fill="#E1CCBA"/>
<path d="M90.2504 71.3133C91.9349 71.7653 93.455 72.4637 94.8108 73.4087C96.2077 74.3126 97.3992 75.4013 98.3853 76.675C99.3713 77.9486 100.172 79.366 100.789 80.9273C101.405 82.4474 101.775 84.0498 101.898 85.7343C102.145 88.4048 102.103 91.0343 101.775 93.6226C101.487 96.1699 101.117 98.7172 100.665 101.264C100.46 102.374 99.9876 103.463 99.248 104.531C98.5496 105.558 97.8306 106.544 97.0911 107.489C96.2694 108.516 95.3449 109.482 94.3178 110.385C93.3318 111.248 92.3868 112.152 91.4829 113.097C90.7023 113.919 89.8601 114.473 88.9562 114.761C88.0523 115.008 87.0868 115.131 86.0597 115.131C85.0325 115.172 84.0259 115.275 83.0399 115.439C82.0539 115.562 81.0678 115.665 80.0818 115.747C78.274 115.911 76.4663 116.035 74.6585 116.117C72.8918 116.24 71.1046 116.404 69.2969 116.61C68.3519 116.692 67.3864 116.754 66.4004 116.795C65.4143 116.877 64.4077 116.918 63.3806 116.918C61.0387 116.918 58.6969 116.856 56.355 116.733C54.0132 116.61 51.7946 116.507 49.6992 116.425C49.2062 116.425 48.8159 115.521 48.5283 113.713C48.2407 111.864 48.0147 109.564 47.8504 106.811C47.7271 104.058 47.6655 101.08 47.6655 97.875C47.6655 94.6292 47.6655 91.6095 47.6655 88.8157C47.7066 85.9808 47.7477 83.5978 47.7887 81.6668C47.8709 79.7358 47.912 78.6881 47.912 78.5238C47.7887 73.799 47.6655 69.1153 47.5422 64.4726C47.419 59.83 47.2957 55.1668 47.1725 50.4831C47.0903 47.4839 47.0081 44.5052 46.926 41.5471C46.8438 38.5478 46.7616 35.5691 46.6794 32.611C46.6794 31.7071 46.7 30.9881 46.7411 30.454C46.7822 29.9199 46.926 29.5091 47.1725 29.2215C47.4601 28.9339 47.8709 28.749 48.405 28.6668C48.9391 28.5436 49.6787 28.4408 50.6236 28.3587C53.0066 28.1533 55.3895 27.9273 57.7725 27.6808C60.1554 27.4343 62.5589 27.311 64.9829 27.311C65.3938 27.311 65.8046 27.3315 66.2155 27.3726C66.6263 27.3726 67.0372 27.3726 67.448 27.3726C70.6527 27.5781 73.8368 27.9273 77.0004 28.4203C80.1639 28.9133 83.2864 29.5296 86.3678 30.2691C88.6686 30.8443 90.6201 31.9742 92.2225 33.6587C93.8659 35.3021 95.2422 37.2126 96.3515 39.3901C97.4608 41.5676 98.3442 43.8684 99.0015 46.2924C99.7 48.6753 100.255 50.894 100.665 52.9482C100.871 54.0575 100.768 55.2695 100.357 56.5843C99.9465 57.899 99.3713 59.2343 98.6318 60.5901C97.8922 61.9048 97.05 63.199 96.105 64.4726C95.1601 65.7463 94.2562 66.8761 93.3934 67.8622C92.5717 68.8482 91.8527 69.6494 91.2364 70.2657C90.6612 70.8819 90.3325 71.2312 90.2504 71.3133ZM54.5062 108.906C56.848 109.112 59.0872 109.338 61.2236 109.584C63.4011 109.79 65.5787 110.016 67.7562 110.262C69.1942 110.385 70.6116 110.447 72.0085 110.447C75.9116 110.447 79.5682 109.81 82.9783 108.537C86.4294 107.222 89.6135 105.044 92.5306 102.004C92.6128 101.922 92.8387 101.511 93.2085 100.771C93.5783 100.032 93.9686 99.0664 94.3794 97.875C94.7903 96.6424 95.1395 95.2455 95.4271 93.6843C95.7147 92.123 95.7969 90.5002 95.6736 88.8157C95.5914 87.0901 95.2422 85.385 94.6259 83.7005C94.0097 81.975 92.962 80.3726 91.4829 78.8936C89.4287 76.7982 87.0868 75.3808 84.4573 74.6412C81.8279 73.9017 79.1368 73.4703 76.3841 73.3471C73.5081 73.2238 70.6322 73.1622 67.7562 73.1622C65.7019 73.1622 63.6682 73.1827 61.655 73.2238C59.6829 73.2238 57.6698 73.2238 55.6155 73.2238C55.4511 73.2238 55.2663 73.2443 55.0608 73.2854C54.8965 73.3265 54.7116 73.3676 54.5062 73.4087V108.906ZM53.8899 67.1226C55.7798 67.1226 57.6492 67.1226 59.498 67.1226C61.3469 67.0815 63.1957 67.061 65.0446 67.061C66.236 67.061 67.407 67.061 68.5573 67.061C69.7077 67.061 70.8787 67.1021 72.0701 67.1843C75.357 67.1843 78.2329 66.6502 80.698 65.5819C83.2042 64.4726 85.7104 62.9114 88.2166 60.8982C90.0244 59.4602 91.3186 57.8579 92.0992 56.0912C92.8798 54.2835 93.229 52.4552 93.1469 50.6064C93.0647 48.7575 92.5717 46.9909 91.6678 45.3064C90.7639 43.5808 89.5108 42.1017 87.9085 40.8691C86.8403 40.0474 85.6899 39.4106 84.4573 38.9587C83.2659 38.5067 82.0128 38.1781 80.698 37.9726C78.1508 37.5207 75.624 37.0688 73.1178 36.6168C70.6116 36.1238 68.0849 35.6513 65.5376 35.1994C64.2639 34.994 63.0108 34.8296 61.7783 34.7064C60.5457 34.5831 59.3132 34.5215 58.0806 34.5215C57.2589 34.5215 56.4372 34.5626 55.6155 34.6447C54.7938 34.6858 53.9721 34.7885 53.1504 34.9529C53.2736 40.4172 53.3969 45.7994 53.5201 51.0994C53.6434 56.3994 53.7667 61.7405 53.8899 67.1226Z" fill="#303030"/>
</svg>
